<?xml version="1.0" encoding="utf-8"?>
<!-- Generator: Adobe Illustrator 16.0.0, SVG Export Plug-In . SVG Version: 6.00 Build 0)  -->
<!DOCTYPE svg PUBLIC "-//W3C//DTD SVG 1.1//EN" "http://www.w3.org/Graphics/SVG/1.1/DTD/svg11.dtd">
<svg version="1.1" id="Layer_3" xmlns="http://www.w3.org/2000/svg" xmlns:xlink="http://www.w3.org/1999/xlink" x="0px" y="0px"
	 width="1000px" height="1000px" viewBox="0 0 1000 1000" enable-background="new 0 0 1000 1000" xml:space="preserve">
<path fill="#563D7C" d="M81.661,810.086c0,59.557,48.277,107.827,107.828,107.827h620.593c59.56,0,107.83-48.277,107.83-107.827
	V189.492c0-59.559-48.276-107.83-107.827-107.83H189.491c-59.559,0-107.83,48.277-107.83,107.828v620.592V810.086z"/>
<path fill="#FFFFFF" d="M428.438,451.566V333.142h104.24c9.931,0,19.502,0.826,28.721,2.482c9.218,1.653,17.374,4.606,24.467,8.863
	c7.088,4.256,12.763,10.166,17.02,17.728c4.252,7.565,6.383,17.257,6.383,29.072c0,21.275-6.383,36.642-19.149,46.095
	c-12.763,9.457-29.073,14.184-48.931,14.184H428.438L428.438,451.566z M317.102,246.625v506.324h245.362
	c22.692,0,44.794-2.835,66.305-8.51c21.511-5.674,40.656-14.42,57.439-26.238c16.782-11.817,30.139-27.065,40.065-45.739
	c9.93-18.675,14.893-40.776,14.893-66.304c0-31.677-7.683-58.74-23.047-81.194c-15.365-22.458-38.65-38.179-69.852-47.16
	c22.691-10.872,39.832-24.821,51.416-41.84c11.58-17.018,17.372-38.291,17.372-63.822c0-23.637-3.9-43.491-11.701-59.566
	c-7.802-16.072-18.793-28.955-32.977-38.647c-14.18-9.691-31.199-16.666-51.058-20.919c-19.854-4.256-41.838-6.383-65.949-6.383
	H317.102L317.102,246.625z M428.438,666.433V527.441h121.259c24.111,0,43.494,5.554,58.152,16.666
	c14.654,11.111,21.983,29.664,21.983,55.667c0,13.24-2.247,24.111-6.738,32.621c-4.491,8.509-10.519,15.249-18.085,20.209
	c-7.561,4.966-16.31,8.511-26.237,10.64c-9.93,2.124-20.328,3.188-31.202,3.188H428.438L428.438,666.433z"/>
</svg>
